<mxfile host="app.diagrams.net" modified="2024-05-31T18:37:25.189Z" agent="Mozilla/5.0 (Windows NT 10.0; Win64; x64) AppleWebKit/537.36 (KHTML, like Gecko) Chrome/125.0.0.0 Safari/537.36" etag="hx-qwzGqfK5AnkaDCuFO" version="24.4.9" type="device">
  <diagram name="Page-1" id="58_MCTyCXAS3QtuhJKGq">
    <mxGraphModel dx="1050" dy="522" grid="1" gridSize="10" guides="1" tooltips="1" connect="1" arrows="1" fold="1" page="1" pageScale="1" pageWidth="850" pageHeight="1100" math="0" shadow="0">
      <root>
        <mxCell id="0" />
        <mxCell id="1" parent="0" />
        <mxCell id="xmksY_riKoTbBEQys-8R-13" value="" style="rounded=0;whiteSpace=wrap;html=1;fillColor=none;" parent="1" vertex="1">
          <mxGeometry x="190" y="30" width="520" height="300" as="geometry" />
        </mxCell>
        <mxCell id="xmksY_riKoTbBEQys-8R-1" value="Guide" style="shape=umlActor;verticalLabelPosition=bottom;verticalAlign=top;html=1;outlineConnect=0;" parent="1" vertex="1">
          <mxGeometry x="100" y="110" width="30" height="60" as="geometry" />
        </mxCell>
        <mxCell id="xmksY_riKoTbBEQys-8R-3" value="System" style="shape=umlActor;verticalLabelPosition=bottom;verticalAlign=top;html=1;outlineConnect=0;" parent="1" vertex="1">
          <mxGeometry x="750" y="115" width="30" height="60" as="geometry" />
        </mxCell>
        <mxCell id="xmksY_riKoTbBEQys-8R-4" value="Quits" style="ellipse;whiteSpace=wrap;html=1;" parent="1" vertex="1">
          <mxGeometry x="270" y="100" width="120" height="80" as="geometry" />
        </mxCell>
        <mxCell id="xmksY_riKoTbBEQys-8R-6" value="Makes voucher for tourist" style="ellipse;whiteSpace=wrap;html=1;" parent="1" vertex="1">
          <mxGeometry x="540" y="105" width="120" height="80" as="geometry" />
        </mxCell>
        <mxCell id="xmksY_riKoTbBEQys-8R-7" value="" style="endArrow=classic;dashed=1;html=1;rounded=0;exitX=1;exitY=0.5;exitDx=0;exitDy=0;endFill=1;" parent="1" source="xmksY_riKoTbBEQys-8R-4" target="xmksY_riKoTbBEQys-8R-6" edge="1">
          <mxGeometry width="50" height="50" relative="1" as="geometry">
            <mxPoint x="400" y="150" as="sourcePoint" />
            <mxPoint x="450" y="100" as="targetPoint" />
          </mxGeometry>
        </mxCell>
        <mxCell id="xmksY_riKoTbBEQys-8R-8" value="&amp;lt;&amp;lt;includes&amp;gt;&amp;gt;" style="text;html=1;align=center;verticalAlign=middle;whiteSpace=wrap;rounded=0;rotation=0;" parent="1" vertex="1">
          <mxGeometry x="425" y="115" width="60" height="30" as="geometry" />
        </mxCell>
        <mxCell id="xmksY_riKoTbBEQys-8R-14" value="" style="endArrow=none;html=1;rounded=0;" parent="1" source="xmksY_riKoTbBEQys-8R-1" target="xmksY_riKoTbBEQys-8R-4" edge="1">
          <mxGeometry width="50" height="50" relative="1" as="geometry">
            <mxPoint x="220" y="130" as="sourcePoint" />
            <mxPoint x="270" y="80" as="targetPoint" />
            <Array as="points" />
          </mxGeometry>
        </mxCell>
        <mxCell id="xmksY_riKoTbBEQys-8R-18" value="" style="endArrow=none;html=1;rounded=0;exitX=1;exitY=0.5;exitDx=0;exitDy=0;" parent="1" source="xmksY_riKoTbBEQys-8R-6" edge="1">
          <mxGeometry width="50" height="50" relative="1" as="geometry">
            <mxPoint x="650" y="180" as="sourcePoint" />
            <mxPoint x="740" y="145" as="targetPoint" />
            <Array as="points">
              <mxPoint x="730" y="145" />
            </Array>
          </mxGeometry>
        </mxCell>
        <mxCell id="xmksY_riKoTbBEQys-8R-19" value="Guide quiting" style="text;html=1;align=center;verticalAlign=middle;whiteSpace=wrap;rounded=0;" parent="1" vertex="1">
          <mxGeometry x="190" y="30" width="90" height="30" as="geometry" />
        </mxCell>
        <mxCell id="xmksY_riKoTbBEQys-8R-21" value="System" style="shape=umlActor;verticalLabelPosition=bottom;verticalAlign=top;html=1;outlineConnect=0;" parent="1" vertex="1">
          <mxGeometry x="635" y="470" width="30" height="60" as="geometry" />
        </mxCell>
        <mxCell id="xmksY_riKoTbBEQys-8R-22" value="Making super-guide" style="ellipse;whiteSpace=wrap;html=1;" parent="1" vertex="1">
          <mxGeometry x="390" y="460" width="120" height="80" as="geometry" />
        </mxCell>
        <mxCell id="xmksY_riKoTbBEQys-8R-23" value="" style="endArrow=none;html=1;rounded=0;" parent="1" edge="1">
          <mxGeometry width="50" height="50" relative="1" as="geometry">
            <mxPoint x="515" y="500" as="sourcePoint" />
            <mxPoint x="635" y="500" as="targetPoint" />
          </mxGeometry>
        </mxCell>
        <mxCell id="xmksY_riKoTbBEQys-8R-24" value="" style="rounded=0;whiteSpace=wrap;html=1;fillColor=none;" parent="1" vertex="1">
          <mxGeometry x="340" y="390" width="250" height="230" as="geometry" />
        </mxCell>
        <mxCell id="xmksY_riKoTbBEQys-8R-25" value="Super-guide" style="text;html=1;align=center;verticalAlign=middle;whiteSpace=wrap;rounded=0;" parent="1" vertex="1">
          <mxGeometry x="330" y="390" width="110" height="30" as="geometry" />
        </mxCell>
      </root>
    </mxGraphModel>
  </diagram>
</mxfile>
